<?xml version="1.0" encoding="UTF-8" standalone="no"?><!-- Generator: Gravit.io --><svg xmlns="http://www.w3.org/2000/svg" xmlns:xlink="http://www.w3.org/1999/xlink" style="isolation:isolate" viewBox="0 0 503 503" width="503pt" height="503pt"><defs><clipPath id="_clipPath_YtiDILHQ97BO6AuSPazD1qENZuIfoNcX"><rect width="503" height="503"/></clipPath></defs><g clip-path="url(#_clipPath_YtiDILHQ97BO6AuSPazD1qENZuIfoNcX)"><path d=" M 16.109 503 C 11.931 503 7.834 501.359 4.808 498.309 C 0.84 494.342 -0.761 488.581 0.605 483.145 L 30.633 362.621 C 31.336 359.805 32.789 357.223 34.835 355.177 L 372.864 17.148 C 395.726 -5.717 432.943 -5.717 455.808 17.148 L 485.965 47.305 C 508.83 70.17 508.83 107.387 485.965 130.249 L 147.94 468.278 C 145.89 470.324 143.308 471.797 140.496 472.48 L 19.972 502.508 C 18.691 502.851 17.41 503 16.109 503 L 16.109 503 Z  M 60.579 374.649 L 38.057 465.036 L 128.445 442.515 L 463.357 107.622 C 473.745 97.234 473.745 80.3 463.357 69.912 L 433.201 39.756 C 422.793 29.348 405.856 29.368 395.491 39.756 L 60.579 374.649 Z  M 136.634 456.976 L 136.849 456.976 L 136.634 456.976 Z " fill="rgb(2,145,140)"/><path d=" M 422.645 186.961 C 418.548 186.961 414.452 185.403 411.339 182.271 L 320.846 91.797 C 314.594 85.545 314.594 75.415 320.846 69.166 C 327.094 62.918 337.225 62.918 343.473 69.166 L 433.97 159.663 C 440.219 165.912 440.219 176.042 433.97 182.291 C 430.811 185.403 426.718 186.961 422.645 186.961 Z " fill="rgb(2,145,140)"/><path d=" M 136.634 472.972 C 132.537 472.972 128.445 471.414 125.332 468.278 L 34.835 377.785 C 28.587 371.532 28.587 361.402 34.835 355.154 C 41.084 348.905 51.214 348.905 57.466 355.154 L 147.959 445.651 C 154.208 451.899 154.208 462.029 147.959 468.278 C 144.823 471.414 140.731 472.972 136.634 472.972 L 136.634 472.972 Z " fill="rgb(2,145,140)"/></g></svg>