<?xml version="1.0" encoding="UTF-8" standalone="no"?><!-- Generator: Gravit.io --><svg xmlns="http://www.w3.org/2000/svg" xmlns:xlink="http://www.w3.org/1999/xlink" style="isolation:isolate" viewBox="0 0 97.385 97.385" width="97.385pt" height="97.385pt"><defs><clipPath id="_clipPath_YRWvY3DG6UyCwgyUEBdPFD5OShwuYyaM"><rect width="97.385" height="97.385"/></clipPath></defs><g clip-path="url(#_clipPath_YRWvY3DG6UyCwgyUEBdPFD5OShwuYyaM)"><g><g><path d=" M 97.265 71.261 C 97.172 71.153 97.035 71.089 96.891 71.089 L 0.494 71.089 C 0.35 71.089 0.214 71.152 0.12 71.261 C 0.026 71.369 -0.016 71.514 0.005 71.657 C 0.019 71.747 1.473 80.673 12.758 80.673 L 84.627 80.673 C 95.911 80.673 97.365 71.747 97.38 71.657 C 97.4 71.514 97.358 71.369 97.265 71.261 Z  M 55.942 77.547 L 41.442 77.547 L 41.442 74.213 L 55.942 74.213 L 55.942 77.547 L 55.942 77.547 Z " fill="rgb(2,145,140)"/><path d=" M 10.507 67.619 L 86.877 67.619 C 87.981 67.619 88.877 66.723 88.877 65.619 L 88.877 18.713 C 88.877 17.609 87.981 16.713 86.877 16.713 L 10.507 16.713 C 9.403 16.713 8.507 17.609 8.507 18.713 L 8.507 65.619 C 8.507 66.723 9.403 67.619 10.507 67.619 Z  M 15.507 23.713 L 81.877 23.713 L 81.877 60.619 L 15.507 60.619 L 15.507 23.713 L 15.507 23.713 Z " fill="rgb(2,145,140)"/></g></g></g></svg>